<svg width="240" height="240" viewBox="0 0 240 240" fill="none" xmlns="http://www.w3.org/2000/svg">
  <defs>
    <linearGradient id="grad1" x1="0%" y1="0%" x2="100%" y2="100%">
      <stop offset="0%" style="stop-color:#34d399;stop-opacity:1" />
      <stop offset="100%" style="stop-color:#10b981;stop-opacity:1" />
    </linearGradient>
    <linearGradient id="grad2" x1="0%" y1="0%" x2="100%" y2="100%">
      <stop offset="0%" style="stop-color:#e2e8f0;stop-opacity:1" />
      <stop offset="100%" style="stop-color:#94a3b8;stop-opacity:1" />
    </linearGradient>
    <filter id="glass" x="-20%" y="-20%" width="140%" height="140%">
      <feGaussianBlur in="SourceGraphic" stdDeviation="5" />
    </filter>
  </defs>

  <!-- Outer Ring -->
  <circle cx="120" cy="120" r="110" stroke="url(#grad2)" stroke-width="1" stroke-dasharray="4 4" opacity="0.3" />
  <circle cx="120" cy="120" r="100" stroke="url(#grad1)" stroke-width="2" opacity="0.6" />

  <!-- Background Glow -->
  <circle cx="120" cy="120" r="80" fill="url(#grad1)" opacity="0.05" />

  <!-- Shield Shape -->
  <path d="M120 40L180 60V120C180 160 120 200 120 200C120 200 60 160 60 120V60L120 40Z" fill="url(#grad1)" fill-opacity="0.1" stroke="url(#grad1)" stroke-width="3" />
  
  <!-- Content -->
  <text x="120" y="105" text-anchor="middle" fill="#34d399" font-family="Inter, sans-serif" font-weight="800" font-size="28" letter-spacing="-0.5">SOVEREIGN</text>
  <text x="120" y="135" text-anchor="middle" fill="#ffffff" font-family="Inter, sans-serif" font-weight="600" font-size="14" opacity="0.8">LOCAL AI STACK</text>
  
  <!-- Version Tag -->
  <rect x="95" y="145" width="50" height="18" rx="9" fill="#10b981" fill-opacity="0.2" stroke="#10b981" stroke-width="1" />
  <text x="120" y="158" text-anchor="middle" fill="#34d399" font-family="Inter, sans-serif" font-weight="700" font-size="10">v2.1</text>

  <!-- Circular Text -->
  <path id="curve" d="M30,120 a90,90 0 1,1 180,0 a90,90 0 1,1 -180,0" fill="none" />
  <text fill="#ffffff" font-family="Inter, sans-serif" font-size="9" font-weight="600" letter-spacing="2" opacity="0.4">
    <textPath href="#curve" startOffset="0">INSTITUTIONAL PRIVACY • ZERO CLOUD RETENTION • GDPR PROOF •</textPath>
  </text>
</svg>
